<?xml version="1.0" encoding="utf-8"?>
<!-- Generator: Adobe Illustrator 24.3.0, SVG Export Plug-In . SVG Version: 6.00 Build 0)  -->
<svg version="1.1" id="Layer_1" xmlns="http://www.w3.org/2000/svg" xmlns:xlink="http://www.w3.org/1999/xlink" x="0px" y="0px"
	 viewBox="0 0 595.3 841.9" style="enable-background:new 0 0 595.3 841.9;" xml:space="preserve">
<style type="text/css">
	.st0{fill:none;stroke:#F26522;stroke-width:3;stroke-miterlimit:10;}
	.st1{opacity:0.34;fill:none;stroke:#00A14B;stroke-width:3;stroke-miterlimit:10;enable-background:new    ;}
	.st2{opacity:0.3;fill:none;stroke:#ED1C24;stroke-width:3;stroke-miterlimit:10;enable-background:new    ;}
	.st3{opacity:0.31;fill:none;stroke:#ED1C24;stroke-width:3;stroke-miterlimit:10;enable-background:new    ;}
	.st4{fill:none;stroke:#000000;stroke-width:3;stroke-miterlimit:10;}
	.st5{stroke:#000000;stroke-width:3;stroke-miterlimit:10;}
	.st6{fill:none;stroke:#27AAE1;stroke-width:3;stroke-miterlimit:10;}
	.st7{fill:none;stroke:#00AEEF;stroke-width:3;stroke-miterlimit:10;}
	.st8{fill:none;stroke:#1C75BC;stroke-width:3;stroke-miterlimit:10;}
	.st9{font-family:'ArialMT';}
	.st10{font-size:14px;}
	.st11{fill:none;stroke:#000000;stroke-miterlimit:10;}
	.st12{font-size:21px;}
	.st13{font-size:12px;}
</style>
<path class="st0" d="M115.6,131.5c1.3,5.1,3.4,10.3,7.4,13.7c2.2,1.9,4.9,3.1,7.5,4.3c3.8,1.8,7.6,3.6,11.5,5.3
	c2.6,1.2,5.4,2.5,7,4.9c1.2,1.8,1.6,4.1,2.6,6c3.1,6.4,10.9,8.8,17.9,10.4c3.2,0.8,6.7,1.5,9.6,0.1c4.5-2.2,5.3-8.1,5.8-13.1
	c1.2-11.6,3.8-23.2,3.5-34.9s-4-24-13.1-31.4c-8.9-7.2-21.2-8.5-32.6-8.3c-8.4,0.1-20.6,1.2-25.6,9.1
	C111.6,106.2,113.3,122.2,115.6,131.5z"/>
<path class="st1" d="M270.1,232.4c-6.4-3.2-11.5-9.1-18.5-10.3c-10.2-1.8-18.9,6.5-27,12.9c-12,9.4-26.5,15.5-41.6,17.5
	c-13.3,1.8-29.4,1.7-36.7,13c-8.1,12.4,1.2,28.9,12.2,38.9c16.7,15,37.5,24.7,54.7,39.1c18.7,15.6,32.9,37.4,36.2,61.5
	s-5.5,50.4-24.9,65.1c-3.2,2.4-6.7,4.6-9,7.9c-1.7,2.5-2.6,5.5-3.4,8.4c-20.7,75.3-20.9,154.5-21,232.6c0,1.7,0,3.5,1.1,4.8
	c1.1,1.4,3,1.8,4.7,2.2c55.7,11,112.5,17,169.3,17.9c17.2,0.2,35.6-0.4,49.4-10.6c19.3-14.4,22.2-41.8,22.9-65.9
	c0.7-23.4,0.9-46.7,0.6-70.1c-0.3-22-1.1-44.6-9.7-64.9c-12.9-30.4-41.6-51.7-56-81.5c-12.1-25.2-12.9-54.3-13.5-82.3
	c-0.1-2.9-0.1-6,1.2-8.6c1-2,2.7-3.5,4.3-4.9c6-5.4,12.1-10.7,18.1-16.1c12.8-11.4,26-23.2,32.8-38.9c6.9-15.7,5.6-36.3-7.6-47.2
	c-8.4-6.9-19.7-8.7-29.9-12.3c-17.2-6.1-31.8-17.8-46.1-29.2c-4.9-3.9-10.2-8.1-16.5-8.6C294.3,200.6,291.9,243.3,270.1,232.4z"/>
<path class="st0" d="M453.1,215.1c0,5.3,0,10.6,0,15.9c0,3.8,0,7.9,2.2,11.1c3.3,4.8,10,5.7,15.8,5.4c5.6-0.3,11.1-1.4,16.4-3.1
	c3.9-1.2,7.9-3,10.4-6.3c1.8-2.4,2.7-5.4,3.4-8.3c1.7-7,2.9-14.1,3.6-21.2c0.4-3.7,0.3-8.1-2.6-10.4c-1.4-1.1-3.2-1.6-5-1.9
	c-10.1-2.2-25.2-7.1-35.5-5.3C451.7,192.8,453.1,206.8,453.1,215.1z"/>
<path class="st0" d="M393.6,230.3c0.3,3.7,0.8,7.5,2.5,10.9c4.1,7.8,13.9,10.6,22.7,11.6c10,1,21.4,0.1,28-7.6
	c4.7-5.4,5.8-13.1,6.2-20.3c1.2-24.1-7.9-53.9-37.9-49C391,179.7,392,212.1,393.6,230.3z"/>
<path class="st0" d="M429,156.1c0,4,0.1,8.1,1.5,11.9c3.6,10,14.6,15.2,24.7,18.6c12,4,26.3,6.6,36.3-1.2s11-22.2,11.2-34.8
	c0.1-9.8,0.1-20.3-5.4-28.5c-2.8-4.2-6.8-7.4-11-10.1c-9.7-6.3-36.6-19.5-44.5-7.9C432.3,118.1,429.2,139.6,429,156.1z"/>
<path class="st0" d="M366.5,155.7c5.7,4.4,11.9,8.2,18,11.9c6.4,3.9,13.3,8,20.8,7.6c7.2-0.3,13.8-4.8,17.8-10.8s5.7-13.2,6-20.4
	c0.7-13.7-4.3-29.1-16.6-35.2c-9.9-4.9-22.3-3.4-33-3.1c-6.7,0.2-14.7-0.3-20.6,3.5C340,121.3,353.4,145.7,366.5,155.7z"/>
<path class="st0" d="M326,182.6c4.6,13.8,12.6,26.5,23,36.6c2.4,2.3,4.9,4.5,8,5.6c7.6,2.8,16.1-1.7,21.8-7.5
	c7.9-8.1,12.8-18.9,13.7-30.1c0.3-3.2,0.2-6.5-1-9.5c-1.1-2.8-3.1-5.1-5.2-7.2c-10.6-10-26.6-14-40.6-10c-6.8,1.9-13.3,5.8-17,11.7
	c-3.8,5.9-4.3,14.2-0.2,19.9"/>
<path class="st0" d="M142.4,223.4c-0.9,3.8-1.7,8,0.1,11.5c1.5,2.9,4.6,4.6,7.4,6.1c12,6.5,24.5,13.1,38.1,13.5
	c3.4,0.1,7-0.2,10.1-1.7c2.6-1.3,4.8-3.4,6.6-5.7c9.3-12.3,6.5-30.9-3.2-42.9c-7.2-8.9-25.5-22.9-38-20.4
	C149.3,186.6,145,212,142.4,223.4z"/>
<path class="st0" d="M131.5,158.3c-3-6.6-10.8-9.4-17.8-10.6c-7.4-1.3-15.1-1.7-22.6-1.1c-4.7,0.4-9.7,1.3-12.7,4.9
	c-1.9,2.2-2.6,5.2-3,8.1c-1.2,8.6,0,17.5,2.6,25.9c2,6.5,4.9,12.8,9.5,17.8c6.7,7.2,16.7,10.9,26.6,11.1s19.6-2.7,28.4-7.1
	c8.6-4.2,17.4-11,18.6-20.6c1.4-10.4-6.7-19.9-15.9-25.1s-19.6-7.8-28.5-13.4"/>
<path class="st0" d="M191.7,146.1c3.4,4,8.7,5.9,13.7,7.4c6.9,2,14,3.5,21.2,4.4c6.8,0.9,14.2,1.2,20.2-2.2
	c5.7-3.3,9.2-9.7,10.4-16.2c1.2-6.5,0.4-13.2-0.5-19.8c-2.1-13.8-6.4-26.8-20.4-32.1c-9.9-3.8-24.4-5.9-34.9-3.6
	c-9.7,2.1-14.5,8.8-16,18.3C183.4,113.9,183.6,136.6,191.7,146.1z"/>
<path class="st0" d="M196.4,161c12.8-2.8,30.5-0.3,38.8,0.1c7,0.4,15.2,1.3,18.9,7.3c2.2,3.5,2.2,7.9,2.2,12.1
	c-0.1,7.8-0.1,15.5-0.2,23.2c0,4.6-0.2,9.7-3.3,13.2c-4.3,4.9-11.9,4.4-18.3,3.5c-10.1-1.5-20.3-3.3-29.5-7.7s-17.4-11.7-20.8-21.4
	c-1.4-4-1.9-8.3-2.4-12.6C180.3,168,187,163,196.4,161z"/>
<path class="st2" d="M74.3,167.1c-0.6,7.5-0.5,15.2,1.9,22.3c4.4,12.9,15.8,22,26.7,30.3c28.2,21.3,61,42.7,96,37.7
	c30.1-4.3,55-28.8,64.6-57.7c9.6-28.8,5.5-60.9-6.2-89c-3.2-7.8-7.2-15.5-13.6-21c-9.3-7.8-22.2-9.6-34.3-10.6
	C146.7,74.1,79.8,94.1,74.3,167.1z"/>
<path class="st3" d="M392.6,98.5c-21.7,6.4-42.1,19.3-54.4,38.4c-12.3,19-15.5,44.5-5.3,64.8c4.1,8.1,10.1,15.1,16.6,21.5
	c8,7.9,16.8,15.1,26.8,20.3c13.1,6.9,27.9,10.2,42.6,12.4c9,1.3,18.2,2.3,27.3,1.6c23.6-1.9,45.8-16,57.7-36.4
	c5.4-9.3,8.8-19.7,10.7-30.3c3.8-21.2,1.9-43.9-8.6-62.7C483.4,87.8,432,86.9,392.6,98.5z"/>
<line class="st4" x1="99.8" y1="123.2" x2="154.1" y2="157.1"/>
<line class="st4" x1="159.1" y1="121.5" x2="152.5" y2="157.9"/>
<line class="st4" x1="208.3" y1="252.2" x2="293.9" y2="314.2"/>
<line class="st4" x1="367.3" y1="243.9" x2="294" y2="317.2"/>
<line class="st4" x1="294.6" y1="315.2" x2="319.3" y2="470.9"/>
<line class="st4" x1="319.3" y1="471.4" x2="319.3" y2="711"/>
<circle class="st5" cx="293.9" cy="314.2" r="3.7"/>
<circle class="st5" cx="208.3" cy="252.2" r="3.7"/>
<circle class="st5" cx="367.3" cy="243.9" r="3.7"/>
<circle class="st5" cx="319.3" cy="470.9" r="3.7"/>
<circle class="st5" cx="320.1" cy="710.5" r="3.7"/>
<line class="st4" x1="151.4" y1="157.2" x2="156.9" y2="209.7"/>
<path class="st4" d="M91,301.8"/>
<line class="st4" x1="220.6" y1="107.7" x2="195.5" y2="147.9"/>
<line class="st4" x1="183.5" y1="109.6" x2="200" y2="169.8"/>
<line class="st4" x1="127" y1="167.9" x2="127" y2="199.1"/>
<line class="st4" x1="200" y1="168.9" x2="184.4" y2="229.3"/>
<line class="st4" x1="240.1" y1="147.6" x2="201.2" y2="168.1"/>
<line class="st4" x1="98.8" y1="183.5" x2="155.1" y2="210.3"/>
<line class="st4" x1="155.8" y1="209.9" x2="212.2" y2="251.9"/>
<line class="st4" x1="234" y1="196.9" x2="190" y2="196.9"/>
<circle class="st5" cx="183.5" cy="228.5" r="3.7"/>
<circle class="st5" cx="156.9" cy="213.5" r="3.7"/>
<circle class="st5" cx="127.9" cy="196.9" r="3.7"/>
<circle class="st5" cx="151.4" cy="157.2" r="3.7"/>
<circle class="st5" cx="193.8" cy="196.9" r="3.7"/>
<circle class="st5" cx="201.2" cy="165.9" r="3.7"/>
<circle class="st5" cx="195.5" cy="147.9" r="3.7"/>
<line class="st4" x1="399.9" y1="179.2" x2="367.3" y2="241.5"/>
<line class="st4" x1="356.8" y1="142.8" x2="385.4" y2="207"/>
<line class="st4" x1="399.9" y1="180.1" x2="491.1" y2="146.2"/>
<line class="st4" x1="401.9" y1="112.5" x2="397.8" y2="182.7"/>
<line class="st4" x1="391.1" y1="193.8" x2="479.5" y2="201.7"/>
<line class="st4" x1="423.6" y1="196.2" x2="447" y2="238.2"/>
<line class="st4" x1="454.5" y1="112.9" x2="449.9" y2="160.8"/>
<line class="st4" x1="422.9" y1="121.3" x2="399.9" y2="152.5"/>
<circle class="st5" cx="385.4" cy="207" r="3.7"/>
<circle class="st5" cx="393.1" cy="193.8" r="3.7"/>
<circle class="st5" cx="426.6" cy="196.9" r="3.7"/>
<circle class="st5" cx="399.9" cy="179.2" r="3.7"/>
<circle class="st5" cx="399.9" cy="147.9" r="3.7"/>
<circle class="st5" cx="449.9" cy="160.8" r="3.7"/>
<path class="st6" d="M149.6,281.5c0.1,2.5,0.5,5.2,2.2,7.1c2.3,2.6,6.1,3.1,9.5,3.5c4.6,0.5,9.7,0.8,13.3-2.1
	c3.2-2.6,4.2-6.9,4.9-11c0.9-6.1,1.2-12.8-2.2-18C164,240.7,149.3,269,149.6,281.5z"/>
<path class="st6" d="M174.6,288.2c-3.8,3.6-4.2,9.4-4.3,14.7c-0.1,2.4-0.1,5,1.2,7c0.9,1.5,2.4,2.5,3.9,3.4c2.9,1.8,6,3.3,9.2,4.5
	c3.1,1.2,6.4,2.1,9.6,1.3c3.1-0.8,5.6-3.1,7.4-5.8c3.1-4.9,3.8-11.4,1.9-16.9C199.6,285.7,183.9,279.5,174.6,288.2z"/>
<path class="st6" d="M235.9,256c1.4,1.2,3.3,1.9,5.1,2.5c5.8,2,12.4,3.5,18,1c6.9-3.2,9.8-11.6,10-19.2c0.1-3.6-0.3-7.3-2.4-10.2
	c-4.9-7-22.1-8.8-28.6-3C231.7,232.5,229.2,250.4,235.9,256z"/>
<path class="st6" d="M255.8,270.9c0.3,1.5,0.8,3.1,1.8,4.3c0.8,1,1.9,1.8,3.1,2.4c4.9,2.9,10.6,4.8,16.3,4.2
	c5.7-0.6,11.3-3.9,13.5-9.2c1-2.4,1.3-5,1.2-7.6C290.6,241,250.7,245.8,255.8,270.9z"/>
<path class="st6" d="M287.2,232.6c-3.2,1.6-6,4.3-6.7,7.8c-1.2,5.4,2.7,10.5,6.6,14.3c3.2,3.1,6.7,6,10.9,7.4c4.2,1.4,9.2,1,12.5-2
	c1.6-1.5,2.7-3.4,3.5-5.4c0.9-2.2,1.6-4.5,1.6-6.9c-0.1-4.8-3.4-8.8-6.4-12.5c-1.2-1.5-2.5-3-4.2-4
	C299.6,228.4,292.3,230,287.2,232.6z"/>
<path class="st6" d="M309.4,214.8c-1.1,5.2-1.6,10.6-1.5,15.9c0,1.3,0.2,2.8,1.2,3.7c0.7,0.7,1.8,0.9,2.7,1c4,0.6,7.9,1.1,11.9,1.5
	c1.9,0.2,3.9,0.3,5.8-0.3c8.6-3,10.5-21.6,4.4-27.5C326.6,201.7,311.5,204.7,309.4,214.8z"/>
<path class="st7" d="M402.6,290.2c4.9,1.7,10,2.6,15.2,2.8c2,0.1,4,0,5.7-1c1.4-0.8,2.3-2.2,3.1-3.6c2.4-4.3,3.4-9.3,2.5-14.1
	c-2.1-11.8-19-19.6-29.8-13.7C387.4,267.2,390.6,286,402.6,290.2z"/>
<path class="st7" d="M401.1,320.5c2.3,0.3,4.6,0.5,6.8-0.1c18.6-5.7,0.9-36.6-16.8-31.8c-6.9,1.9-13.1,7.8-13.3,15.3
	C377.4,316.7,391.2,319.2,401.1,320.5z"/>
<path class="st7" d="M196.3,319.7c-0.1,2,0.2,4.1,1.1,5.9c1.3,2.6,3.7,4.4,6.2,5.8c6.5,3.7,14.3,5.4,21.7,4.6
	c1.4-0.1,2.8-0.4,3.9-1.1c1.2-0.8,2.1-2.2,2.7-3.5c4-9,0.3-20.6-8.1-25.7C212.1,298.6,197.1,305,196.3,319.7z"/>
<path class="st7" d="M254.4,351.1c3.9-2.1,6.7-6,7.6-10.3c3.3-16.5-19.1-25.3-29-12.9c-3.6,4.5-8,15.9-3.9,21.2
	C233.6,354.8,248.7,354.2,254.4,351.1z"/>
<path class="st7" d="M272,404.1c12.2-10.4,1.6-36.1-14.5-22.3C243.7,393.8,255.9,417.9,272,404.1z"/>
<path class="st7" d="M356.6,337.1c0,0.8,0,1.5,0.4,2.2c0.6,1,1.9,1.4,3,1.6c6.7,1.3,13.7,0.9,20.1-1.3c3.2-1.1,6.3-2.7,8.7-5.1
	c2.4-2.4,3.9-5.8,3.4-9.2c-0.7-5.9-7-9.7-12.9-10.6c-5.7-0.9-13.4-1.9-17.6,2.5C357.6,321.3,356.6,331.5,356.6,337.1z"/>
<path class="st7" d="M360.6,358.2c2.3-6.4,0.5-14.1-4.4-18.9c-12-11.9-33-2.8-28.9,14.2c2.1,8.6,2.9,15.3,11.7,16
	C348,370.2,357.3,367.4,360.6,358.2z"/>
<path class="st7" d="M364.5,391.4c1.8-7.7-3.9-15.4-10.5-19.7c-3-2-6.4-3.5-10-3.4c-12.4,0.6-19.5,21-11.6,30
	C340.7,407.7,361.5,404.2,364.5,391.4z"/>
<path class="st7" d="M260.2,443.9c1.5,0.2,3-0.2,4.4-0.8c3.3-1.4,6.3-3.2,9-5.5c1.1-1,2.2-2,2.6-3.4c0.4-1.2,0.2-2.6,0.1-3.9
	c-0.6-4.8-1.2-9.5-1.8-14.3c-0.2-2-0.6-4.2-2.1-5.5c-1.4-1.2-3.5-1.4-5.4-1.4c-3-0.1-6.2-0.1-8.8,1.4c-4.4,2.6-5.3,8.4-5.8,13.5
	C252,428.7,254.3,443,260.2,443.9z"/>
<path class="st7" d="M251.8,377c2.7,0.4,5.2,1.7,8,1.8c4.1,0.2,7.9-2.4,10.4-5.7s3.7-7.3,4.9-11.2c1.2-3.9,2.2-8.6-0.7-11.4
	c-1.1-1-2.5-1.6-4-1.9c-5.9-1.3-12,0.7-17.7,2.8c-1.7,0.6-3.4,1.2-4.8,2.3C239.9,359.3,242,375.4,251.8,377z"/>
<path class="st7" d="M250.8,465c0,1.3,0.1,2.6,0.7,3.7c1.3,2.7,4.8,3.2,7.8,3.4c6.4,0.5,13.9,0.5,17.6-4.7c2.8-3.9,2.2-9.2,1.6-14
	c-0.4-2.6-1-5.5-3.2-6.8c-1.1-0.7-2.5-0.8-3.9-0.9C255.3,444.9,250.3,448.3,250.8,465z"/>
<path class="st7" d="M331.2,421.4c0.5,1.8,1.1,3.7,2.5,4.9c1.4,1.3,3.4,1.8,5.3,2.2c2.5,0.6,5.1,1.1,7.6,1.7c4.2,1,9,1.8,12.6-0.5
	c4.3-2.8,5.1-8.7,4.9-13.8c-0.1-3.7-0.9-8.1-4.1-9.9c-1.2-0.7-2.6-0.9-4-1.1C342.7,403.3,326.6,403.2,331.2,421.4z"/>
<path class="st7" d="M333.1,456.4c3.1,5.5,10.1,8.5,16.1,6.8c1.3-0.4,2.6-1,3.6-1.9c1.9-1.7,2.6-4.3,3.2-6.8
	c1.7-6.9,3.2-14.9-1.2-20.5c-2.8-3.5-7.7-5.2-12.1-4.1C333.4,432.2,328.7,448.5,333.1,456.4z"/>
<path class="st8" d="M246.8,512.9c3.6-1,7.1-3,9-6.3c1.6-2.7,1.9-6,2.1-9.1c0.2-2.8,0.5-5.7,0.7-8.5c0.3-3.6,0.5-7.5-1.3-10.6
	c-3.1-5-10-5.6-15.9-5.3c-6.9,0.3-20.8-0.7-26.7,3c-4.6,2.9-6.6,12.9-5.6,18.2C212.5,511.4,231.9,516.8,246.8,512.9z"/>
<path class="st8" d="M202.4,545.9c1.8,2.1,4.2,3.5,6.6,4.8c3.8,2.1,7.6,4.2,11.8,5.3c7.7,2,16.3,0.2,22.5-4.7s10-12.8,9.8-20.8
	c0-1.9-0.3-3.9-1.1-5.6c-1.8-3.9-5.9-6.2-9.9-7.8c-8.6-3.3-27.2-8.1-35.4-1.5C199.7,521.4,196.4,538.8,202.4,545.9z"/>
<path class="st8" d="M205.4,599.4c4.9,5,12.5,5.8,19.5,5.8c4.6,0,9.2-0.2,13.8-0.7c1.4-0.1,3-0.3,4.1-1.2c1-0.8,1.7-1.9,2.2-3.1
	c5-10.1,8.9-22,4.6-32.5c-0.9-2.2-2.2-4.3-4.1-5.5c-1.3-0.8-2.9-1.2-4.4-1.6c-10.9-2.5-22.2-3.1-33.2-1.6s-11.5,7.3-9.1,16.7
	C200.8,583.6,199.3,593.2,205.4,599.4z"/>
<path class="st8" d="M234.5,646c2.4,0,4.8-0.1,7-1c4.3-1.9,6.3-6.8,6.9-11.5c0.9-7-0.6-14-2.2-20.9c-0.2-0.8-0.4-1.7-0.9-2.4
	s-1.3-1.2-2-1.6c-4.9-2.6-10.8-2.8-16.4-2.9c-7.1-0.2-19.7-2.9-25.4,2.3c-4.4,4.1-5.4,13.9-4.2,19.5
	C201.4,647.6,217.9,646.1,234.5,646z"/>
<path class="st8" d="M368.2,455.6c5.8-1.6,11.9-0.8,17.9-0.1c2,0.3,4.2,0.6,5.8,1.9c1.2,1,1.9,2.6,2.5,4.1c1.7,4.5,2.7,9.3,3,14.1
	c0.2,3.1,0.1,6.4-1.5,9.1c-2.9,5.2-9.7,6.5-15.6,7c-1.2,0.1-2.5,0.2-3.7-0.3c-1.1-0.4-1.9-1.2-2.7-2
	C364,479.7,344,463.1,368.2,455.6z"/>
<path class="st8" d="M372.9,513.9c-2,6,0.6,12.8,5.2,17.1s10.8,6.5,17,7.5c7.9,1.4,16,1.2,23.8-0.5c4.7-1,9.6-2.8,12.5-6.7
	c1.6-2.2,2.4-4.9,3-7.6c1.1-5.5,0.9-11.4-1.8-16.3c-3.2-5.7-9.4-9-15.4-11.3c-8.8-3.4-18.2-5.4-27.6-5.9c-5.4-0.3-11.8,0.5-14.3,5.2
	c-1.2,2.2-1.3,4.8-1.3,7.3c-0.1,5.4-0.2,10.8-0.4,16.2c0,1.9,0.2,4.2,1.9,5"/>
<path class="st8" d="M417.1,592.5c6,1.5,12.8,2.6,18.2-0.4c6-3.3,8.5-10.6,9.5-17.3c0.8-5.3,1-10.9-1.5-15.6
	c-2.9-5.4-8.7-8.5-14.3-10.8c-8.3-3.4-17-5.8-25.9-7.1c-13.9-2.1-27.3,9.6-21.7,24.2C387.1,580.5,402.2,588.7,417.1,592.5z"/>
<path class="st8" d="M425.3,624.7c1.9-0.5,3.9-1.1,5.6-2.3c2.3-1.7,3.8-4.5,4.4-7.4c1.8-7.7-1.8-16.5-8.3-20.5
	c-2.7-1.6-5.7-2.4-8.7-3.2c-9.1-2.2-18.3-3.8-27.6-4.8c-1.4-0.1-2.9-0.3-4.2,0.3c-1.3,0.5-2.2,1.7-3.1,2.8c-6.3,8.9-9,30.6,1.2,37.9
	C394.6,634.8,415,627.4,425.3,624.7z"/>
<path class="st8" d="M213.5,649.1c8.2-3,17.4-3.6,26.3-3.4c2.1,0,4.4,0.2,5.9,1.4c1.4,1.1,1.8,2.9,2.1,4.6c0.7,4.1,1.4,8.2,2.1,12.3
	c0.4,2.4,0.8,4.9,0.2,7.2c-1.1,4.3-5.3,7.7-10.1,9.5s-10.1,2.3-15.3,2.8c-2.4,0.2-4.8,0.4-7.2,0.7c-5.4,0.5-12.2,0.4-14.7-3.7
	c-1.1-1.9-0.9-4.1-2-6c-3.9-7-8.2-6-3-13.5C201.5,655.6,206.7,651.5,213.5,649.1z"/>
<path class="st8" d="M201.3,720.9c5.3,7.3,14.2,12.8,23.1,11.4c3.8-0.6,7.3-2.3,10.8-4c5.5-2.7,11.7-6.4,12.4-12.5
	c0.1-1.3,0-2.6-0.1-3.9c-0.6-5.8-1.2-11.6-1.8-17.5c-0.2-1.6-0.4-3.3-1.5-4.4c-1-1-2.6-1.2-4-1.3c-8.5-0.8-17.1-0.9-25.7-1
	c-7-0.1-21.2-0.6-23.1,8.3C190,702.7,197.6,715.8,201.3,720.9z"/>
<path class="st8" d="M378.1,662.4c2.4,5.8,6.3,10.9,10.3,15.7c1.8,2.1,3.6,4.3,6.1,5.5c3.9,1.9,8.5,1,12.8,0
	c5.6-1.3,11.4-2.7,15.9-6.3c3.2-2.5,5.5-5.8,7.8-9.2s4.7-6.8,7-10.1c1.1-1.6,2.3-3.3,2.7-5.3c0.7-3.2-0.8-6.6-3.2-8.8
	s-5.5-3.5-8.7-4.4c-11.4-3.2-29.7-5.1-41.5-3.1C375.7,638.6,374.3,652.9,378.1,662.4z"/>
<path class="st8" d="M399.9,735.3c9.6,0.4,20.1-0.9,27.1-7.5c4.7-4.5,7.1-10.9,8.4-17.3c0.9-4.3,1.2-8.9-0.6-12.8
	c-1.2-2.5-3.1-4.5-5.2-6.2c-14.3-11.6-41.8-11-53,5.2c-4,5.9-4.5,14.9-3.2,21.7C375.8,731.2,388.1,734.8,399.9,735.3z"/>
<text transform="matrix(1 0 0 1 36.0724 105.3381)" class="st9 st10">Acinus</text>
<text transform="matrix(1 0 0 1 118.0357 62.9609)" class="st9 st10">ACell</text>
<text transform="matrix(1 0 0 1 105.5435 275.3905)" class="st9 st10">ICell</text>
<line class="st11" x1="62.1" y1="109.6" x2="82.4" y2="122.3"/>
<line class="st11" x1="139.3" y1="65.9" x2="143.1" y2="106.8"/>
<line class="st11" x1="136" y1="272.7" x2="159.3" y2="278.1"/>
<text transform="matrix(1 0 0 1 157.1347 483.3115)" class="st9 st10">SCell</text>
<line class="st11" x1="193.6" y1="480.6" x2="216.9" y2="486"/>
<text transform="matrix(1 0 0 1 453.0077 377.835)" class="st9 st10">Duct</text>
<line class="st11" x1="447.6" y1="374.9" x2="395.5" y2="394.5"/>
<text transform="matrix(1 0 0 1 447.5697 420.9447)" class="st9 st10">Duct LTree</text>
<line class="st11" x1="441.3" y1="419.2" x2="320.1" y2="439.5"/>
<text transform="matrix(1 0 0 1 259.6109 92.0487)" class="st9 st10">Acinus LTree</text>
<line class="st11" x1="273.4" y1="94.8" x2="216.5" y2="124.4"/>
<text transform="matrix(1 0 0 1 72.2772 800.913)" class="st9 st12">MiniGland   </text>
<text transform="matrix(1 0 0 1 184.2772 800.913)" class="st9 st13">24-07-21</text>
<circle class="st5" cx="102.6" cy="183.5" r="3.7"/>
<circle class="st5" cx="127.9" cy="165.9" r="3.7"/>
<circle class="st5" cx="99.8" cy="121.3" r="3.7"/>
<circle class="st5" cx="159.1" cy="121.3" r="3.7"/>
<circle class="st5" cx="184.4" cy="110.3" r="3.7"/>
<circle class="st5" cx="220.6" cy="111.4" r="3.7"/>
<circle class="st5" cx="240.1" cy="147.6" r="3.7"/>
<circle class="st5" cx="233.5" cy="196.9" r="3.7"/>
<circle class="st5" cx="356.8" cy="140.6" r="3.7"/>
<circle class="st5" cx="401.9" cy="111.4" r="3.7"/>
<circle class="st5" cx="423.6" cy="120.1" r="3.7"/>
<circle class="st5" cx="454.1" cy="112.5" r="3.7"/>
<circle class="st5" cx="491.1" cy="146.2" r="3.7"/>
<circle class="st5" cx="483.2" cy="201.7" r="3.7"/>
<circle class="st5" cx="445.4" cy="237" r="3.7"/>
</svg>
